<svg width="68" height="12" viewBox="0 0 68 12" fill="none" xmlns="http://www.w3.org/2000/svg">
<path opacity="0.35" d="M43.5002 3.00004C43.5002 1.80342 44.4702 0.833374 45.6668 0.833374H62.3335C63.5301 0.833374 64.5002 1.80342 64.5002 3.00004V9.00004C64.5002 10.1967 63.5301 11.1667 62.3335 11.1667H45.6668C44.4702 11.1667 43.5002 10.1967 43.5002 9.00004V3.00004Z" stroke="white"/>
<path opacity="0.4" d="M66.0002 4.00004V8.00004C66.8049 7.66126 67.3282 6.87317 67.3282 6.00004C67.3282 5.12691 66.8049 4.33882 66.0002 4.00004Z" fill="white"/>
<path d="M45.0002 3.43337C45.0002 2.82586 45.4927 2.33337 46.1002 2.33337H61.9002C62.5077 2.33337 63.0002 2.82586 63.0002 3.43337V8.56671C63.0002 9.17422 62.5077 9.66671 61.9002 9.66671H46.1002C45.4927 9.66671 45.0002 9.17422 45.0002 8.56671V3.43337Z" fill="white"/>
<path fill-rule="evenodd" clip-rule="evenodd" d="M30.3307 2.60814C32.5466 2.60823 34.6777 3.45967 36.2837 4.98647C36.4046 5.10435 36.5979 5.10286 36.717 4.98314L37.873 3.81647C37.9333 3.75575 37.9669 3.6735 37.9664 3.58792C37.9659 3.50234 37.9313 3.42048 37.8703 3.36047C33.6552 -0.679076 27.0054 -0.679076 22.7903 3.36047C22.7293 3.42044 22.6946 3.50227 22.6941 3.58785C22.6935 3.67343 22.7271 3.7557 22.7873 3.81647L23.9437 4.98314C24.0627 5.10304 24.2561 5.10453 24.377 4.98647C25.9832 3.45957 28.1146 2.60813 30.3307 2.60814ZM30.3307 6.4038C31.5482 6.40373 32.7222 6.85626 33.6247 7.67347C33.7467 7.78945 33.939 7.78694 34.058 7.6678L35.2127 6.50114C35.2735 6.43994 35.3072 6.35693 35.3063 6.27066C35.3055 6.1844 35.27 6.10208 35.208 6.04214C32.4598 3.48576 28.2039 3.48576 25.4557 6.04214C25.3936 6.10208 25.3582 6.18444 25.3574 6.27073C25.3565 6.35702 25.3904 6.44003 25.4513 6.50114L26.6057 7.6678C26.7247 7.78694 26.9169 7.78945 27.039 7.67347C27.9409 6.8568 29.114 6.40431 30.3307 6.4038ZM32.6437 8.95762C32.6454 9.04413 32.6114 9.12753 32.5497 9.18814L30.5523 11.2038C30.4938 11.263 30.414 11.2964 30.3307 11.2964C30.2474 11.2964 30.1676 11.263 30.109 11.2038L28.1113 9.18814C28.0496 9.12749 28.0157 9.04406 28.0175 8.95755C28.0193 8.87104 28.0568 8.78913 28.121 8.73114C29.3966 7.65225 31.2648 7.65225 32.5403 8.73114C32.6045 8.78917 32.6419 8.87112 32.6437 8.95762Z" fill="white"/>
<path fill-rule="evenodd" clip-rule="evenodd" d="M16.667 0.666748H15.667C15.1147 0.666748 14.667 1.11446 14.667 1.66675V10.3334C14.667 10.8857 15.1147 11.3334 15.667 11.3334H16.667C17.2193 11.3334 17.667 10.8857 17.667 10.3334V1.66675C17.667 1.11446 17.2193 0.666748 16.667 0.666748ZM11.0003 3.00008H12.0003C12.5526 3.00008 13.0003 3.4478 13.0003 4.00008V10.3334C13.0003 10.8857 12.5526 11.3334 12.0003 11.3334H11.0003C10.448 11.3334 10.0003 10.8857 10.0003 10.3334V4.00008C10.0003 3.4478 10.448 3.00008 11.0003 3.00008ZM7.33366 5.33341H6.33366C5.78137 5.33341 5.33366 5.78113 5.33366 6.33341V10.3334C5.33366 10.8857 5.78137 11.3334 6.33366 11.3334H7.33366C7.88594 11.3334 8.33366 10.8857 8.33366 10.3334V6.33341C8.33366 5.78113 7.88594 5.33341 7.33366 5.33341ZM2.66699 7.33341H1.66699C1.11471 7.33341 0.666992 7.78113 0.666992 8.33341V10.3334C0.666992 10.8857 1.11471 11.3334 1.66699 11.3334H2.66699C3.21928 11.3334 3.66699 10.8857 3.66699 10.3334V8.33341C3.66699 7.78113 3.21928 7.33341 2.66699 7.33341Z" fill="white"/>
</svg>
