<svg width="68" height="12" viewBox="0 0 68 12" fill="none" xmlns="http://www.w3.org/2000/svg">
<path opacity="0.35" d="M43.5032 2.99935C43.5032 1.80274 44.4733 0.832687 45.6699 0.832687H62.3365C63.5332 0.832687 64.5032 1.80274 64.5032 2.99935V8.99936C64.5032 10.196 63.5332 11.166 62.3365 11.166H45.6699C44.4733 11.166 43.5032 10.196 43.5032 8.99935V2.99935Z" stroke="black"/>
<path opacity="0.4" d="M66.0032 3.99935V7.99935C66.8079 7.66057 67.3312 6.87248 67.3312 5.99935C67.3312 5.12622 66.8079 4.33813 66.0032 3.99935Z" fill="black"/>
<path d="M45.0032 3.43269C45.0032 2.82517 45.4957 2.33269 46.1032 2.33269H61.9032C62.5107 2.33269 63.0032 2.82517 63.0032 3.43269V8.56602C63.0032 9.17353 62.5107 9.66602 61.9032 9.66602H46.1032C45.4957 9.66602 45.0032 9.17353 45.0032 8.56602V3.43269Z" fill="black"/>
<path fill-rule="evenodd" clip-rule="evenodd" d="M30.3337 2.60733C32.5496 2.60743 34.6807 3.45886 36.2867 4.98566C36.4076 5.10354 36.6009 5.10205 36.72 4.98233L37.876 3.81566C37.9363 3.75494 37.97 3.67269 37.9695 3.58711C37.969 3.50153 37.9344 3.41968 37.8734 3.35966C33.6583 -0.679885 27.0085 -0.679885 22.7934 3.35966C22.7323 3.41963 22.6977 3.50146 22.6971 3.58704C22.6965 3.67262 22.7301 3.7549 22.7904 3.81566L23.9467 4.98233C24.0657 5.10223 24.2592 5.10372 24.38 4.98566C25.9862 3.45876 28.1176 2.60732 30.3337 2.60733ZM30.3337 6.403C31.5512 6.40292 32.7252 6.85545 33.6277 7.67266C33.7498 7.78864 33.942 7.78613 34.061 7.667L35.2157 6.50033C35.2765 6.43913 35.3102 6.35612 35.3094 6.26985C35.3085 6.18359 35.2731 6.10127 35.211 6.04133C32.4628 3.48495 28.2069 3.48495 25.4587 6.04133C25.3966 6.10127 25.3612 6.18363 25.3604 6.26992C25.3596 6.35621 25.3934 6.43922 25.4544 6.50033L26.6087 7.667C26.7277 7.78613 26.92 7.78864 27.042 7.67266C27.9439 6.85599 29.117 6.4035 30.3337 6.403ZM32.6467 8.95681C32.6484 9.04332 32.6144 9.12672 32.5527 9.18733L30.5554 11.203C30.4968 11.2622 30.417 11.2956 30.3337 11.2956C30.2504 11.2956 30.1706 11.2622 30.112 11.203L28.1144 9.18733C28.0526 9.12668 28.0187 9.04325 28.0205 8.95674C28.0224 8.87024 28.0598 8.78832 28.124 8.73033C29.3996 7.65145 31.2678 7.65145 32.5434 8.73033C32.6075 8.78836 32.6449 8.87031 32.6467 8.95681Z" fill="black"/>
<path fill-rule="evenodd" clip-rule="evenodd" d="M16.67 0.665939H15.67C15.1177 0.665939 14.67 1.11365 14.67 1.66594V10.3326C14.67 10.8849 15.1177 11.3326 15.67 11.3326H16.67C17.2223 11.3326 17.67 10.8849 17.67 10.3326V1.66594C17.67 1.11365 17.2223 0.665939 16.67 0.665939ZM11.0033 2.99927H12.0033C12.5556 2.99927 13.0033 3.44699 13.0033 3.99927V10.3326C13.0033 10.8849 12.5556 11.3326 12.0033 11.3326H11.0033C10.4511 11.3326 10.0033 10.8849 10.0033 10.3326V3.99927C10.0033 3.44699 10.4511 2.99927 11.0033 2.99927ZM7.33668 5.33261H6.33668C5.7844 5.33261 5.33668 5.78032 5.33668 6.33261V10.3326C5.33668 10.8849 5.7844 11.3326 6.33668 11.3326H7.33668C7.88896 11.3326 8.33668 10.8849 8.33668 10.3326V6.33261C8.33668 5.78032 7.88896 5.33261 7.33668 5.33261ZM2.67001 7.33261H1.67001C1.11773 7.33261 0.670013 7.78032 0.670013 8.33261V10.3326C0.670013 10.8849 1.11773 11.3326 1.67001 11.3326H2.67001C3.2223 11.3326 3.67001 10.8849 3.67001 10.3326V8.33261C3.67001 7.78032 3.2223 7.33261 2.67001 7.33261Z" fill="black"/>
</svg>
